<svg xmlns="http://www.w3.org/2000/svg" viewBox="0 0 24 24">
  <path fill="#EA4335" d="M24 5.457v13.909c0 .904-.732 1.636-1.636 1.636h-3.819V11.73L12 16.64l-7.545-4.91v9.273H.636A1.636 1.636 0 0 1 0 19.366V5.457c0-2.023 2.309-3.178 3.927-1.964L12 9.548l8.073-6.055C21.69 2.28 24 3.434 24 5.457z"/>
  <path fill="#FBBC05" d="M12 9.548 3.927 3.402C2.31 2.188 0 3.343 0 5.457v.09L7.545 10.46 12 9.548z"/>
  <path fill="#34A853" d="M12 9.548 16.455 10.46 24 5.547v-.09c0-2.023-2.31-3.178-3.927-1.964L12 9.548z"/>
  <path fill="#4285F4" d="M24 5.457v.09L16.455 10.46 12 9.548l4.455.912L24 5.547z"/>
  <path fill="#C5221F" d="M0 5.547v-.09c0-2.023 2.309-3.178 3.927-1.964L12 9.548 7.545 10.46 0 5.547z"/>
</svg>
