<svg xmlns="http://www.w3.org/2000/svg" viewBox="0 0 24 24">
  <circle cx="12" cy="12" r="12" fill="#26A5E4"/>
  <path fill="#fff" d="M5.45 11.64c3.9-1.7 6.5-2.82 7.8-3.36 3.71-1.55 4.48-1.82 4.98-1.83.11 0 .36.03.52.17.14.11.18.26.2.37.02.11.04.36.02.55-.18 1.88-.97 6.44-1.37 8.55-.17.9-.5 1.2-.82 1.23-.7.06-1.23-.46-1.91-.9-1.06-.69-1.66-1.12-2.69-1.8-1.19-.78-.42-1.21.26-1.91.18-.19 3.25-2.98 3.31-3.23.01-.04.01-.17-.06-.24-.07-.07-.17-.05-.24-.03-.1.03-1.73 1.1-4.88 3.22-.46.32-.88.47-1.25.46-.41-.01-1.2-.23-1.79-.42-.72-.24-1.29-.37-1.24-.78.03-.21.32-.43.88-.66z"/>
</svg>
